<svg width="32" height="48" viewBox="0 0 32 48" fill="none" xmlns="http://www.w3.org/2000/svg">
<path d="M0.873362 48C0.291121 48 0 47.6999 0 47.0998V13.7194C0 13.3353 0.116448 12.9752 0.349345 12.6392L8.59389 0.540134C8.85007 0.180045 9.22271 0 9.71179 0H22.2183C22.7307 0 23.1033 0.180045 23.3362 0.540134L31.6507 12.6392C31.8836 12.9752 32 13.3353 32 13.7194V47.0998C32 47.6999 31.7089 48 31.1266 48H18.3406C17.7584 48 17.4672 47.6999 17.4672 47.0998V33.5964H14.5328V47.0998C14.5328 47.6999 14.2416 48 13.6594 48H0.873362ZM16 21.1013C17.0015 21.1013 17.8166 20.7772 18.4454 20.129C19.0742 19.4809 19.3886 18.6527 19.3886 17.6444C19.3886 16.6122 19.0742 15.7719 18.4454 15.1238C17.8166 14.4756 17.0015 14.1515 16 14.1515C14.9985 14.1515 14.1834 14.4756 13.5546 15.1238C12.9258 15.7719 12.6114 16.6122 12.6114 17.6444C12.6114 18.6527 12.9258 19.4809 13.5546 20.129C14.1834 20.7772 14.9985 21.1013 16 21.1013Z" fill="#FF0490"/>
</svg>
